<?xml version="1.0" encoding="utf-8"?>
<!-- Svg Vector Icons : http://www.onlinewebfonts.com/icon -->
<!DOCTYPE svg PUBLIC "-//W3C//DTD SVG 1.1//EN" "http://www.w3.org/Graphics/SVG/1.1/DTD/svg11.dtd">
<svg version="1.1" xmlns="http://www.w3.org/2000/svg" xmlns:xlink="http://www.w3.org/1999/xlink" x="0px" y="0px" viewBox="0 0 1000 1000" enable-background="new 0 0 1000 1000" xml:space="preserve">
<metadata> Svg Vector Icons : http://www.onlinewebfonts.com/icon </metadata>
<g><path d="M990,241.6c0-83.3-65.8-150.8-147-150.8H157c-81.2,0-147,67.5-147,150.8v516.9c0,83.3,65.8,150.8,147,150.8h686c81.2,0,147-67.5,147-150.8V241.6z M176.1,181.9h650.1v0c40.6,0,72.4,18,72.4,59.7v34.5H101.5v-34.5C101.5,199.9,135.5,181.9,176.1,181.9z M826.2,818.1H176.1c-40.6,0-74.6-18-74.6-59.7V417.5h797.1v340.9C898.5,800.1,866.8,818.1,826.2,818.1z"/><path d="M782.1,488.9H507.6c-20.8,0-37.7,13.6-37.7,33.9c0,20.3,16.9,33.9,37.7,33.9h274.5c20.8,0,37.7-13.7,37.7-33.9C819.8,502.5,802.9,488.9,782.1,488.9z"/></g>
</svg>