<?xml version="1.0" encoding="utf-8"?>
<!-- Svg Vector Icons : http://www.onlinewebfonts.com/icon -->
<!DOCTYPE svg PUBLIC "-//W3C//DTD SVG 1.1//EN" "http://www.w3.org/Graphics/SVG/1.1/DTD/svg11.dtd">
<svg version="1.1" xmlns="http://www.w3.org/2000/svg" xmlns:xlink="http://www.w3.org/1999/xlink" x="0px" y="0px" viewBox="0 0 1000 1000" enable-background="new 0 0 1000 1000" xml:space="preserve">
<metadata> Svg Vector Icons : http://www.onlinewebfonts.com/icon </metadata>
<g><g transform="translate(0.000000,511.000000) scale(0.100000,-0.100000)"><path d="M7373.9,4966.9c-295.8-118.8-485.8-367-524.7-693.1l-15.1-118.8l-157.6,153.3c-185.7,181.4-360.5,291.5-589.4,375.7c-803.2,291.5-1686.2-60.4-2070.5-824.8c-77.7-151.1-146.8-386.5-170.6-567.8l-15.1-107.9l-179.2-105.8c-99.3-58.3-265.6-181.4-371.4-272.1c-103.6-92.8-811.8-792.4-1574-1556.7C451.9-11.9,315.9-154.4,246.8-292.6C138.9-499.8,100-668.3,100-920.9c0-332.5,86.4-604.5,280.7-896c95-142.5,2161.2-2238.9,2495.9-2532.6c213.7-185.7,367-280.7,598.1-367c166.3-60.4,196.5-64.8,490.1-66.9c345.4,0,442.6,23.7,688.7,166.3c149,86.4,3022.7,2947.1,3193.2,3180.3c62.6,84.2,155.5,239.6,207.3,345.4c140.3,282.8,187.8,483.6,200.8,831.2c12.9,306.6-6.5,490.1-82,792.4l-43.2,177l414.5,621.8l416.7,624l151.1,2.2c343.3,4.3,636.9,215.9,749.2,539.8c36.7,101.5,43.2,164.1,36.7,321.7c-6.5,168.4-19.4,218.1-79.9,345.4c-64.8,133.9-146.8,222.4-842,917.6c-697.4,697.4-781.6,777.3-917.6,842c-136,64.8-172.7,73.4-367,77.7C7518.5,5007.9,7451.6,4999.3,7373.9,4966.9z M7794.9,4371c90.7-43.2,1450.9-1407.7,1479-1485.4c41-107.9,28.1-185.7-38.9-254.8c-69.1-66.9-179.2-84.2-267.7-38.9c-66.9,34.6-1435.8,1399.1-1474.6,1470.3c-36.7,71.2-38.9,209.4-2.2,256.9C7557.4,4405.5,7678.3,4427.1,7794.9,4371z M5791.3,4135.6c354.1-92.9,656.4-401.6,747.1-760c15.1-58.3,28.1-107.9,30.2-112.3c2.2-2.2,159.8,77.7,354.1,179.2c194.3,101.5,362.7,183.5,375.7,183.5c28.1,0,1222-1189.6,1222-1215.5c0-10.8-239.6-373.5-531.1-807.5l-529-790.2l75.6-272c170.5-604.5,159.7-969.4-41-1379.6c-77.7-155.5-138.2-239.7-276.4-384.3l-177-183.5L5260.1,374.6L3481.1,2155.8l51.8,58.3c211.6,224.5,602.4,459.9,846.4,507.4c123.1,23.8,127.4,28.1,114.4,82c-71.2,276.4-54,522.5,51.8,747c181.4,386.5,533.3,613.2,952.1,615.3C5599.1,4165.9,5730.8,4152.9,5791.3,4135.6z M5055,150l1770.4-1770.4l-816.1-814l-814-816.1L3414.2-1469.3L1632.9,312l803.2,803.2c442.6,442.6,814,805.3,826.9,805.3C3276,1920.4,4081.3,1123.8,5055,150z M3204.7-1691.7l1776.9-1776.9l-330.3-326c-297.9-291.5-343.3-330.3-449.1-360.6c-220.2-64.8-496.6-25.9-712.5,99.3c-95,56.1-2528.3,2478.6-2616.8,2606C711-1218.8,661.4-895,749.9-655.3c41,103.6,92.8,170.6,349.8,431.8c166.3,170.6,308.8,308.7,315.2,308.7C1421.3,85.2,2226.7-713.6,3204.7-1691.7z"/><path d="M5383.2,3518.1c-164.1-49.6-295.8-226.7-295.8-399.4c0-105.8,60.5-239.7,142.5-317.4c196.5-183.5,537.6-120.9,654.2,116.6C6048.2,3256.9,5739.5,3623.9,5383.2,3518.1z"/></g></g>
</svg>